<svg width="40" height="40" viewBox="0 0 40 40" fill="none" xmlns="http://www.w3.org/2000/svg">
<rect width="40" height="40" rx="12" fill="#F5F7FA"/>
<path fill-rule="evenodd" clip-rule="evenodd" d="M16.536 12H23.472C26.184 12 28 13.904 28 16.736V23.272C28 26.096 26.184 28 23.472 28H16.536C13.824 28 12 26.096 12 23.272V16.736C12 13.904 13.824 12 16.536 12Z" fill="white"/>
<path opacity="0.25" d="M23.472 12H16.536C13.824 12 12 13.904 12 16.736V23.272C12 26.096 13.824 28 16.536 28H23.472C26.184 28 28 26.096 28 23.272V16.736C28 13.904 26.184 12 23.472 12Z" fill="#1A1926"/>
<path fill-rule="evenodd" clip-rule="evenodd" d="M22.4517 16.4941C22.8031 16.8425 23 17.3392 23 17.9307L23 21.0219C23 22.6519 21.6239 24 19.9881 24C18.3301 24 17 22.5811 17 20.9735L17 17.9761C17 17.6578 17.26 17.3998 17.5806 17.3998C17.9013 17.3998 18.1613 17.6578 18.1613 17.9761L18.1613 20.9735C18.1613 21.9826 19.0092 22.8476 19.9881 22.8476C20.9893 22.8476 21.8387 22.0088 21.8387 21.0219L21.8387 17.9307C21.8387 17.5984 21.7332 17.4107 21.6309 17.3093C21.5242 17.2035 21.3787 17.1488 21.2238 17.1526C20.9432 17.1593 20.5806 17.3687 20.5806 17.9792V20.9735C20.5806 21.2917 20.3207 21.5497 20 21.5497C19.6793 21.5497 19.4194 21.2917 19.4194 20.9735V17.9792C19.4194 16.7616 20.2665 16.0229 21.1956 16.0005C21.6454 15.9897 22.1048 16.1502 22.4517 16.4941Z" fill="#1A1926"/>
</svg>
