<svg width="48" height="48" viewBox="0 0 48 48" fill="none" xmlns="http://www.w3.org/2000/svg">
<rect x="0.5" y="0.5" width="47" height="47" rx="13.5" stroke="#E3E5E8"/>
<path d="M28.4432 20.5C30.404 20.5 32 22.0952 32 24.0558V27.953C32 29.9088 30.408 31.5 28.4512 31.5H19.5584C17.5968 31.5 16 29.9056 16 27.945V24.0478C16 22.092 17.5928 20.5 19.5504 20.5H20.3024L28.4432 20.5Z" fill="white"/>
<path opacity="0.25" d="M28.4432 20.5C30.404 20.5 32 22.0952 32 24.0558V27.953C32 29.9088 30.408 31.5 28.4512 31.5H19.5584C17.5968 31.5 16 29.9056 16 27.945V24.0478C16 22.092 17.5928 20.5 19.5504 20.5H20.3024L28.4432 20.5Z" fill="#1A1926"/>
<path d="M24.437 27.3299L26.7642 24.9556C27.0042 24.7102 27.0042 24.3153 26.7626 24.0707C26.521 23.8269 26.1314 23.8277 25.8914 24.0723L24.617 25.3724V17.1257C24.617 16.7803 24.341 16.5 24.0002 16.5C23.6602 16.5 23.385 16.7803 23.385 17.1257V25.3724L22.1098 24.0723C21.8698 23.8277 21.4802 23.8269 21.2386 24.0707C21.1178 24.1934 21.057 24.3535 21.057 24.5144C21.057 24.6736 21.1178 24.8337 21.237 24.9556L23.5642 27.3299C23.6802 27.4477 23.837 27.5144 24.0002 27.5144C24.1642 27.5144 24.321 27.4477 24.437 27.3299Z" fill="#1A1926"/>
</svg>
