<svg width="40" height="40" viewBox="0 0 40 40" fill="none" xmlns="http://www.w3.org/2000/svg">
<rect width="40" height="40" rx="12" fill="#F5F7FA"/>
<path d="M23.4663 28H16.5329C13.8215 28 12 26.0983 12 23.2674V16.7334C12 13.9025 13.8215 12 16.5329 12H23.4671C26.1785 12 28 13.9025 28 16.7334V23.2674C28 26.0983 26.1785 28 23.4663 28Z" fill="white"/>
<path opacity="0.25" d="M23.4663 28H16.5329C13.8215 28 12 26.0983 12 23.2674V16.7334C12 13.9025 13.8215 12 16.5329 12H23.4671C26.1785 12 28 13.9025 28 16.7334V23.2674C28 26.0983 26.1785 28 23.4663 28Z" fill="#1A1926"/>
<path d="M22.7427 20.8717C22.9203 20.6389 23.5795 19.9109 24.4315 20.4293C24.9747 20.7557 25.4315 21.1973 25.9203 21.6701C26.1067 21.8509 26.2403 22.0573 26.3283 22.2773C26.5947 22.9429 26.4563 23.7429 26.1715 24.4021C25.8339 25.1869 25.1875 25.7797 24.3731 26.0389C24.0115 26.1549 23.6323 26.2045 23.2539 26.2045H16.5491C15.8819 26.2045 15.2915 26.0493 14.8075 25.7581C14.5043 25.5757 14.4507 25.1557 14.6755 24.8821C15.0515 24.4261 15.4227 23.9685 15.7971 23.5069C16.5107 22.6237 16.9915 22.3677 17.5259 22.5925C17.7427 22.6853 17.9603 22.8253 18.1843 22.9725C18.7811 23.3677 19.6107 23.9101 20.7035 23.3213C21.4555 22.9101 21.8899 22.2045 22.2691 21.5933C22.4243 21.3445 22.5715 21.0965 22.7427 20.8717ZM17.408 15.3512C18.504 15.3512 19.396 16.244 19.396 17.34C19.396 18.436 18.504 19.328 17.408 19.328C16.3112 19.328 15.42 18.436 15.42 17.34C15.42 16.244 16.3112 15.3512 17.408 15.3512Z" fill="#1A1926"/>
</svg>
