<svg width="27" height="64" viewBox="0 0 27 64" fill="none" xmlns="http://www.w3.org/2000/svg">
<g filter="url(#filter0_d_1_3436)">
<path fill-rule="evenodd" clip-rule="evenodd" d="M32 0C45.2548 0 56 10.7452 56 24C56 37.2548 45.2548 48 32 48C18.7452 48 8 37.2548 8 24C8 10.7452 18.7452 0 32 0Z" fill="url(#paint0_radial_1_3436)"/>
<path fill-rule="evenodd" clip-rule="evenodd" d="M32 0C45.2548 0 56 10.7452 56 24C56 37.2548 45.2548 48 32 48C18.7452 48 8 37.2548 8 24C8 10.7452 18.7452 0 32 0Z" fill="url(#paint1_radial_1_3436)"/>
<path d="M28.2864 24C28.2864 21.9487 29.9489 20.2854 32.0002 20.2854C34.0516 20.2854 35.715 21.9487 35.715 24C35.715 26.0513 34.0516 27.7146 32.0002 27.7146C29.9489 27.7146 28.2864 26.0513 28.2864 24ZM26.2783 24C26.2783 27.1601 28.84 29.7217 32.0002 29.7217C35.1605 29.7217 37.7222 27.1601 37.7222 24C37.7222 20.8399 35.1605 18.2783 32.0002 18.2783C28.84 18.2783 26.2784 20.8397 26.2784 24H26.2783ZM36.6116 18.0514C36.6115 18.3159 36.6898 18.5744 36.8367 18.7944C36.9835 19.0143 37.1923 19.1858 37.4366 19.2871C37.6809 19.3884 37.9497 19.415 38.2092 19.3635C38.4686 19.312 38.7069 19.1848 38.894 18.9978C39.081 18.8109 39.2085 18.5727 39.2602 18.3133C39.3119 18.054 39.2855 17.7851 39.1844 17.5407C39.0833 17.2964 38.912 17.0875 38.6922 16.9405C38.4723 16.7934 38.2138 16.7149 37.9493 16.7148H37.9488C37.5943 16.715 37.2544 16.8558 37.0036 17.1064C36.7529 17.357 36.6119 17.6969 36.6116 18.0514ZM27.4983 33.0701C26.4119 33.0206 25.8214 32.8397 25.429 32.6868C24.9087 32.4843 24.5375 32.243 24.1472 31.8533C23.757 31.4636 23.5154 31.0927 23.3137 30.5725C23.1607 30.1803 22.9798 29.5896 22.9304 28.5032C22.8764 27.3287 22.8656 26.9759 22.8656 24.0002C22.8656 21.0245 22.8773 20.6727 22.9304 19.4971C22.9799 18.4107 23.1622 17.8212 23.3137 17.4279C23.5163 16.9076 23.7575 16.5364 24.1472 16.1462C24.537 15.7559 24.9078 15.5143 25.429 15.3127C25.8212 15.1597 26.4119 14.9787 27.4983 14.9294C28.6729 14.8753 29.0258 14.8646 32.0002 14.8646C34.9747 14.8646 35.3279 14.8761 36.5035 14.9295C37.5899 14.979 38.1794 15.1613 38.5728 15.3129C39.0931 15.5145 39.4643 15.7566 39.8546 16.1463C40.2449 16.5361 40.4855 16.9078 40.6881 17.428C40.8411 17.8203 41.022 18.4109 41.0714 19.4973C41.1254 20.6728 41.1362 21.0247 41.1362 24.0004C41.1362 26.976 41.1254 27.3279 41.0714 28.5034C41.0219 29.5898 40.8401 30.1803 40.6881 30.5727C40.4855 31.0929 40.2443 31.4641 39.8546 31.8535C39.4648 32.2429 39.0931 32.4844 38.5728 32.687C38.1806 32.8399 37.5899 33.0209 36.5035 33.0703C35.3289 33.1243 34.976 33.1351 32.0002 33.1351C29.0244 33.1351 28.6726 33.1243 27.4983 33.0703V33.0701ZM27.4061 12.9246C26.2198 12.9786 25.4092 13.1667 24.7013 13.4422C23.9686 13.7266 23.3475 14.1083 22.7273 14.7275C22.1071 15.3466 21.7265 15.9678 21.442 16.7013C21.1665 17.4097 20.9784 18.2198 20.9244 19.406C20.8695 20.5941 20.8569 20.974 20.8569 24C20.8569 27.026 20.8695 27.4059 20.9244 28.594C20.9784 29.7803 21.1665 30.5903 21.442 31.2987C21.7265 32.0313 22.1072 32.6536 22.7273 33.2726C23.3474 33.8915 23.9677 34.2726 24.7013 34.5578C25.4105 34.8333 26.2198 35.0214 27.4061 35.0754C28.5948 35.1294 28.9741 35.1429 32.0002 35.1429C35.0264 35.1429 35.4063 35.1303 36.5944 35.0754C37.7808 35.0214 38.5908 34.8333 39.2992 34.5578C40.0319 34.2726 40.653 33.8917 41.2732 33.2726C41.8934 32.6534 42.2732 32.0313 42.5585 31.2987C42.8339 30.5903 43.0229 29.7802 43.0761 28.594C43.1301 27.405 43.1426 27.026 43.1426 24C43.1426 20.974 43.1301 20.5941 43.0761 19.406C43.022 18.2197 42.8339 17.4092 42.5585 16.7013C42.2732 15.9687 41.8924 15.3476 41.2732 14.7275C40.6539 14.1073 40.0319 13.7266 39.3001 13.4422C38.5908 13.1667 37.7807 12.9778 36.5953 12.9246C35.407 12.8703 35.0273 12.8571 32.0016 12.8571C28.9759 12.8571 28.5953 12.8697 27.4065 12.9246" fill="white"/>
</g>
<defs>
<filter id="filter0_d_1_3436" x="0" y="0" width="64" height="64" filterUnits="userSpaceOnUse" color-interpolation-filters="sRGB">
<feFlood flood-opacity="0" result="BackgroundImageFix"/>
<feColorMatrix in="SourceAlpha" type="matrix" values="0 0 0 0 0 0 0 0 0 0 0 0 0 0 0 0 0 0 127 0" result="hardAlpha"/>
<feOffset dy="8"/>
<feGaussianBlur stdDeviation="4"/>
<feComposite in2="hardAlpha" operator="out"/>
<feColorMatrix type="matrix" values="0 0 0 0 0.905882 0 0 0 0 0.345098 0 0 0 0 0.337255 0 0 0 0.05 0"/>
<feBlend mode="normal" in2="BackgroundImageFix" result="effect1_dropShadow_1_3436"/>
<feBlend mode="normal" in="SourceGraphic" in2="effect1_dropShadow_1_3436" result="shape"/>
</filter>
<radialGradient id="paint0_radial_1_3436" cx="0" cy="0" r="1" gradientUnits="userSpaceOnUse" gradientTransform="translate(11.1065 46.9485) scale(60.9422 60.9422)">
<stop offset="0.216911" stop-color="#FA8F21"/>
<stop offset="1" stop-color="#D82D7E"/>
</radialGradient>
<radialGradient id="paint1_radial_1_3436" cx="0" cy="0" r="1" gradientUnits="userSpaceOnUse" gradientTransform="translate(41.2479 45.4072) scale(53.6297 53.6297)">
<stop offset="0.698466" stop-color="#8C3AAA" stop-opacity="0"/>
<stop offset="1" stop-color="#8C3AAA"/>
</radialGradient>
</defs>
</svg>
