<svg width="40" height="40" viewBox="0 0 40 40" fill="none" xmlns="http://www.w3.org/2000/svg">
<rect width="40" height="40" rx="12" fill="#E8EAED"/>
<path fill-rule="evenodd" clip-rule="evenodd" d="M16.05 20C16.05 19.9448 16.0948 19.9 16.15 19.9C16.2053 19.9 16.25 19.9448 16.25 20C16.25 20.0553 16.2053 20.1 16.15 20.1C16.0948 20.1 16.05 20.0553 16.05 20ZM16.15 17.9C14.9903 17.9 14.05 18.8402 14.05 20C14.05 21.1598 14.9903 22.1 16.15 22.1C17.3098 22.1 18.25 21.1598 18.25 20C18.25 18.8402 17.3098 17.9 16.15 17.9ZM23.75 20C23.75 19.9448 23.7948 19.9 23.85 19.9C23.9053 19.9 23.95 19.9448 23.95 20C23.95 20.0553 23.9053 20.1 23.85 20.1C23.7948 20.1 23.75 20.0553 23.75 20ZM23.85 17.9C22.6903 17.9 21.75 18.8402 21.75 20C21.75 21.1598 22.6903 22.1 23.85 22.1C25.0098 22.1 25.95 21.1598 25.95 20C25.95 18.8402 25.0098 17.9 23.85 17.9Z" fill="#1A1926"/>
</svg>
