<svg width="40" height="40" viewBox="0 0 40 40" fill="none" xmlns="http://www.w3.org/2000/svg">
<rect width="40" height="40" rx="12" fill="#F5F7FA"/>
<path d="M28 20C28 24.4192 24.4184 28 20 28C15.5816 28 12 24.4192 12 20C12 15.5824 15.5816 12 20 12C24.4184 12 28 15.5824 28 20Z" fill="white"/>
<path opacity="0.25" d="M28 20C28 24.4192 24.4184 28 20 28C15.5816 28 12 24.4192 12 20C12 15.5824 15.5816 12 20 12C24.4184 12 28 15.5824 28 20Z" fill="#1A1926"/>
<path fill-rule="evenodd" clip-rule="evenodd" d="M22.0418 19.7917C22.7327 19.7917 23.2918 19.1392 23.2918 18.3333C23.2918 17.5275 22.7318 16.875 22.0418 16.875C21.3519 16.875 20.7919 17.5283 20.7919 18.3333C20.7919 19.1383 21.3519 19.7917 22.0418 19.7917ZM23.576 21.1133C23.2735 20.9583 22.8968 21.0775 22.736 21.38C22.7077 21.435 22.0118 22.7075 19.9594 22.7075C17.9169 22.7075 17.2169 21.4467 17.1819 21.3808C17.0252 21.0767 16.6552 20.9525 16.3452 21.1067C16.0369 21.2617 15.9119 21.6367 16.066 21.9458C16.1077 22.0283 17.106 23.9575 19.9594 23.9575C22.8135 23.9575 23.8102 22.0275 23.851 21.945C24.0043 21.6392 23.881 21.27 23.576 21.1133ZM19.1252 18.3333C19.1252 19.1392 18.566 19.7917 17.876 19.7917C17.1852 19.7917 16.6252 19.1392 16.6252 18.3333C16.6252 17.5275 17.1852 16.875 17.8752 16.875C18.5652 16.875 19.1252 17.5275 19.1252 18.3333Z" fill="#1A1926"/>
</svg>
